<svg width="700" height="700" viewBox="0 0 700 700" fill="none" xmlns="http://www.w3.org/2000/svg">
<circle cx="350" cy="350" r="350" fill="#EDDECD"/>
<path fill-rule="evenodd" clip-rule="evenodd" d="M268 191.848L279.392 143.747L289.519 122.228L298.38 109.57L311.038 100.709V93.1139L326.228 84.2532L350.278 76.6582L384.456 69.0633L407.241 64H436.354L478.127 71.5949L514.835 84.2532L542.684 95.6456L566.734 112.101L589.519 133.62L598.38 145.013L608.506 174.127L612.304 203.241H631.291L651.544 207.038L665.468 223.494L668 255.139L661.671 277.924L649.013 298.177L631.291 305.772H616.101L608.506 298.177H604.709V308.304L579.392 339.949L549.013 372.861L535.089 382.987H530.025V386.785H540.152V390.582L530.025 394.38L524.962 395.646V404.506L528.759 408.304H532.557L533.823 405.772H541.418V409.57L535.089 414.633L532.557 417.165H522.43V420.962H531.291V427.291L528.759 429.823H519.899L511.038 419.696H505.975L514.835 437.418V443.747H509.772L503.443 433.62V427.291H498.38L488.253 553.873V556.405H494.582L495.848 552.608H502.177V561.468L490.785 581.722L489.519 586.785V605.772L507.241 632.354L509.772 636.152L504.709 637.418L485.722 613.367H476.861V605.772L480.658 603.24V586.785L483.19 577.924L486.987 569.063L485.722 564H479.392L476.861 558.937H473.833L470.532 570.329L463.529 577.924H456.608L454.076 567.797L452.81 562.734H447.747L442.684 572.861L436.354 577.924H431.291L428.759 569.063L424.962 561.468H421.165L408.506 577.924L392.051 580.456V576.658L398.38 571.595L397.114 567.797H393.316L383.19 577.924L378.127 580.456H375.595L369.266 588.051H364.203V581.722L369.266 579.925L373.063 576.658V571.595L368 569.063L361.671 570.329L357.873 580.456H352.81L343.949 574.127L340.152 575.392V581.722L342.684 586.785L346.481 585.519L347.747 581.722H351.02V590.582H346.481L343.949 594.38L345.215 599.443L347.747 607.038L349.013 613.367V623.494V634.886L343.949 637.418H338.886V632.354L341.418 628.557V624.759H337.62L331.291 636.152L314.835 633.62L302.177 632.354L297.114 627.291L293.316 626.025L295.848 619.696L300.911 615.899L313.57 614.633L314.835 610.835L302.177 605.772L303.443 595.646L311.038 588.051L318.633 586.785L326.228 590.582L333.823 598.177L336.354 601.975H340.152V591.848L327.494 572.861V566.532H336.354L340.152 569.063L343.949 570.329H347.747L346.481 566.532L342.684 557.671L340.152 546.278L336.354 537.418L331.291 524.759L322.43 496.911L319.899 484.253L317.367 466.532L316.101 455.139H328.759L331.291 474.127L333.823 501.975L345.215 531.089L351.02 542.481L354.076 550.076V562.734L359.139 567.797L364.203 562.734H369.266L376.861 569.063H383.19L392.051 557.671H397.114L398.38 560.203L400.911 569.063H407.241L423.696 550.076H426.228L428.759 551.342L433.823 567.797H437.62L447.747 553.873H455.342L460.405 557.671V565.266H465.468L466.734 556.405L470.532 551.342H478.127L481.924 498.177L485.722 456.405L490.785 424.759V407.038L488.253 394.38L485.722 372.861L488.253 355.139L490.785 339.949L488.253 338.684L459.139 367.797L449.013 369.063L447.747 380.456L443.949 388.051L436.354 394.38V396.911L440.152 399.443V410.835L436.354 419.696L428.759 426.025L421.165 429.823H416.101L408.506 423.494L404.709 418.43V405.772L409.772 398.177L412.304 396.911H417.367V393.114H413.57L411.038 388.051V371.595L412.304 367.797L426.228 352.608H428.759V343.747H433.823V338.684L436.354 336.152H438.886L440.152 339.949V346.278L442.684 347.544L445.215 353.873L451.544 358.937H456.608L466.734 351.342L476.861 339.949L486.987 328.557L489.519 323.494L492.051 322.228V318.43H489.519L488.253 315.899L489.519 309.57L492.051 300.709L490.785 290.582L486.987 286.785L484.456 279.19L478.127 275.392L468 271.595L460.405 274.127L457.873 280.456L460.405 282.987H468L473.063 286.785L480.658 290.582L483.19 296.911L481.924 307.038L478.127 310.835L474.329 309.57L473.063 299.443L464.203 293.114H455.342L446.481 294.38L443.949 299.443L450.278 305.772L454.076 312.101L451.544 323.494L447.747 328.557V334.886L450.278 336.152H454.076L455.342 333.62H459.139V338.684L455.342 342.481H446.481L442.684 339.949L440.152 334.886V329.823L442.684 324.759L443.949 320.29H446.481L445.215 313.367L440.152 305.772L436.354 301.975L433.823 303.241V309.57L430.025 317.165L424.962 326.025L419.899 329.823L417.367 328.557V324.759L419.899 322.228L423.696 317.165L426.228 308.304L428.759 298.177V295.646H426.228L418.633 312.101L411.038 322.228L407.241 326.025H400.911V320.962L407.241 314.633L409.772 308.304V304.506H403.443L402.177 305.772H399.646L398.38 304.506L397.114 300.709L399.646 298.177L403.443 296.911L407.241 288.051H409.772V284.253H407.241L400.911 285.519L399.646 282.987L400.911 280.456L405.975 279.19L411.038 277.924L412.304 272.861H414.835V250.076L404.709 238.684L392.051 226.025L383.19 212.101L370.532 195.646L360.405 180.456L346.481 158.937L337.62 146.278L332.557 132.354L326.228 118.43L318.633 108.304H314.835L303.443 118.43L297.114 131.089L289.519 146.278L286.987 157.671L284.456 169.063L281.924 180.456L279.392 186.785V190.582L283.19 184.253L290.785 180.456L297.114 175.392L304.709 172.861L313.57 171.595L322.43 172.861L324.962 175.392L327.494 179.19V182.987H322.43L318.633 180.456L313.57 179.19H307.241L297.114 184.253L288.253 194.38L281.924 198.177H276.861L269.266 196.911L268 191.848ZM438.886 293.116L443.95 282.99L452.811 272.863L462.937 265.268L468 261.471L464.203 256.408H456.608L450.279 262.737L445.216 269.066L440.152 275.395L437.621 285.521L438.886 293.116ZM498.379 274.123H494.582V275.389L495.848 277.921L498.379 280.452V286.781V294.376V300.706H502.177L503.443 296.908V288.047L502.177 281.718L499.645 276.655L498.379 274.123ZM271.798 218.44H278.127L280.659 220.971L283.19 223.503H288.254L292.051 219.706L295.849 214.642L297.114 209.579H303.444V215.908L300.912 219.706L297.114 223.503L295.849 226.035V228.566L304.709 231.098L311.038 234.895L317.368 239.959L318.633 242.49V247.554L313.57 252.617L307.241 256.414L293.317 266.541L289.519 267.807H281.925L279.393 265.275V256.414L283.19 255.149V251.351L280.659 248.819L279.393 242.49V236.161L281.925 233.63L284.456 232.364L283.19 229.832L279.393 228.566H275.595L271.798 227.3L270.532 224.769V218.44V217.174L271.798 218.44ZM302.177 247.549V248.815H307.241L309.772 246.283V242.486L307.241 239.954H304.709L302.177 241.22V247.549ZM293.317 245.017L294.582 242.486L297.114 241.22L298.38 242.486V246.283L297.114 247.549L295.848 250.081L294.582 252.612H292.051L289.519 250.081L288.253 248.815V246.283L289.519 245.017H293.317ZM474.329 577.924L473.063 574.127L475.595 566.532H480.658V572.861L478.127 577.924H474.329ZM422.43 572.861L421.164 576.658H423.696L427.494 577.924V574.127L423.696 572.861H422.43ZM443.949 576.658V580.456H449.013L450.278 576.658L451.544 574.127L446.481 572.861L445.215 576.658H443.949ZM354.076 613.367L359.139 612.102L360.405 613.367L365.468 612.102H370.532L374.329 615.899L370.532 619.696L365.468 623.494H354.076L351.544 619.696L354.076 613.367ZM389.519 617.165L383.19 615.899L384.456 610.836L388.253 607.038H394.582L400.911 608.304L405.975 612.102L407.24 617.165L404.709 619.696H397.114L394.582 618.431L389.519 617.165ZM412.304 615.899L414.835 619.696H433.823L440.152 615.899L438.886 610.836L432.557 607.038H423.696L417.367 609.57L413.57 612.102L412.304 615.899ZM466.734 615.899H447.747H443.949L442.683 613.367L445.215 609.57L449.013 605.772L456.608 603.241H464.202L468 608.304L466.734 615.899Z" fill="black"/>
<path d="M279.392 143.747L278.94 143.534L278.918 143.581L278.906 143.632L279.392 143.747ZM268 191.848L267.513 191.733L267.485 191.851L267.515 191.969L268 191.848ZM289.519 122.228L289.109 121.941L289.085 121.976L289.067 122.015L289.519 122.228ZM298.38 109.57L298.093 109.16L298.021 109.211L297.97 109.283L298.38 109.57ZM311.038 100.709L311.325 101.118L311.538 100.969V100.709H311.038ZM311.038 93.1139L310.786 92.682L310.538 92.8267V93.1139H311.038ZM326.228 84.2532L326.077 83.7764L326.024 83.7932L325.976 83.8213L326.228 84.2532ZM350.278 76.6582L350.17 76.1701L350.149 76.1749L350.128 76.1814L350.278 76.6582ZM384.456 69.0633L384.347 68.5752L384.347 68.5752L384.456 69.0633ZM407.241 64V63.5H407.186L407.132 63.5119L407.241 64ZM436.354 64L436.444 63.5081L436.4 63.5H436.354V64ZM478.127 71.5949L478.29 71.1222L478.254 71.1098L478.216 71.103L478.127 71.5949ZM514.835 84.2532L515.025 83.7904L515.012 83.7851L514.998 83.7805L514.835 84.2532ZM542.684 95.6456L542.966 95.2329L542.922 95.2029L542.873 95.1828L542.684 95.6456ZM566.734 112.101L567.077 111.738L567.049 111.711L567.017 111.689L566.734 112.101ZM589.519 133.62L589.914 133.313L589.89 133.283L589.862 133.257L589.519 133.62ZM598.38 145.013L598.852 144.848L598.825 144.771L598.774 144.706L598.38 145.013ZM608.506 174.127L609.002 174.062L608.995 174.011L608.979 173.962L608.506 174.127ZM612.304 203.241L611.808 203.305L611.865 203.741H612.304V203.241ZM631.291 203.241L631.383 202.749L631.338 202.741H631.291V203.241ZM651.544 207.038L651.926 206.715L651.811 206.579L651.636 206.547L651.544 207.038ZM665.468 223.494L665.967 223.454L665.954 223.293L665.85 223.171L665.468 223.494ZM668 255.139L668.482 255.273L668.505 255.188L668.498 255.099L668 255.139ZM661.671 277.924L662.095 278.189L662.133 278.128L662.153 278.058L661.671 277.924ZM649.013 298.177L649.21 298.637L649.354 298.575L649.437 298.442L649.013 298.177ZM631.291 305.772V306.272H631.394L631.488 306.232L631.291 305.772ZM616.101 305.772L615.748 306.126L615.894 306.272H616.101V305.772ZM608.506 298.177L608.86 297.824L608.713 297.677H608.506V298.177ZM604.709 298.177V297.677H604.209V298.177H604.709ZM604.709 308.304L605.099 308.616L605.209 308.479V308.304H604.709ZM579.392 339.949L579.76 340.289L579.772 340.276L579.783 340.262L579.392 339.949ZM549.013 372.861L549.307 373.265L549.347 373.236L549.38 373.2L549.013 372.861ZM535.089 382.987V383.487H535.251L535.383 383.392L535.089 382.987ZM530.025 382.987V382.487H529.525V382.987H530.025ZM530.025 386.785H529.525V387.285H530.025V386.785ZM540.152 386.785H540.652V386.285H540.152V386.785ZM540.152 390.582L540.327 391.05L540.652 390.929V390.582H540.152ZM530.025 394.38L530.147 394.865L530.174 394.858L530.201 394.848L530.025 394.38ZM524.962 395.646L524.841 395.161L524.462 395.255V395.646H524.962ZM524.962 404.506H524.462V404.713L524.608 404.86L524.962 404.506ZM528.759 408.304L528.406 408.657L528.552 408.804H528.759V408.304ZM532.557 408.304V408.804H532.866L533.004 408.527L532.557 408.304ZM533.823 405.772V405.272H533.514L533.376 405.549L533.823 405.772ZM541.418 405.772H541.918V405.272H541.418V405.772ZM541.418 409.57L541.73 409.96L541.918 409.81V409.57H541.418ZM535.089 414.633L534.776 414.242L534.755 414.26L534.735 414.279L535.089 414.633ZM532.557 417.165V417.665H532.764L532.91 417.518L532.557 417.165ZM522.43 417.165V416.665H521.93V417.165H522.43ZM522.43 420.962H521.93V421.462H522.43V420.962ZM531.291 420.962H531.791V420.462H531.291V420.962ZM531.291 427.291L531.645 427.645L531.791 427.498V427.291H531.291ZM528.759 429.823V430.323H528.967L529.113 430.176L528.759 429.823ZM519.899 429.823L519.522 430.152L519.672 430.323H519.899V429.823ZM511.038 419.696L511.414 419.367L511.265 419.196H511.038V419.696ZM505.975 419.696V419.196H505.166L505.527 419.92L505.975 419.696ZM514.835 437.418H515.335V437.3L515.283 437.194L514.835 437.418ZM514.835 443.747V444.247H515.335V443.747H514.835ZM509.772 443.747L509.348 444.012L509.495 444.247H509.772V443.747ZM503.443 433.62H502.943V433.764L503.019 433.885L503.443 433.62ZM503.443 427.291H503.943V426.791H503.443V427.291ZM498.38 427.291V426.791H497.918L497.881 427.251L498.38 427.291ZM488.253 553.873L487.755 553.834L487.753 553.853V553.873H488.253ZM488.253 556.405H487.753V556.905H488.253V556.405ZM494.582 556.405V556.905H494.943L495.057 556.563L494.582 556.405ZM495.848 552.608V552.108H495.488L495.374 552.449L495.848 552.608ZM502.177 552.608H502.677V552.108H502.177V552.608ZM502.177 561.468L502.613 561.713L502.677 561.599V561.468H502.177ZM490.785 581.722L490.349 581.476L490.316 581.535L490.3 581.6L490.785 581.722ZM489.519 586.785L489.034 586.664L489.019 586.723V586.785H489.519ZM489.519 605.772H489.019V605.924L489.103 606.05L489.519 605.772ZM507.241 632.354L507.657 632.077L507.657 632.077L507.241 632.354ZM509.772 636.152L509.893 636.637L510.582 636.465L510.188 635.875L509.772 636.152ZM504.709 637.418L504.316 637.728L504.517 637.981L504.83 637.903L504.709 637.418ZM485.722 613.367L486.114 613.057L485.964 612.867H485.722V613.367ZM476.861 613.367H476.361V613.867H476.861V613.367ZM476.861 605.772L476.583 605.356L476.361 605.505V605.772H476.861ZM480.658 603.24L480.936 603.657L481.158 603.508V603.24H480.658ZM480.658 586.785L480.177 586.647L480.158 586.715V586.785H480.658ZM483.19 577.924L482.73 577.727L482.718 577.756L482.709 577.787L483.19 577.924ZM486.987 569.063L487.447 569.26L487.513 569.105L487.472 568.942L486.987 569.063ZM485.722 564L486.207 563.879L486.112 563.5H485.722V564ZM479.392 564L478.945 564.224L479.083 564.5H479.392V564ZM476.861 558.937L477.308 558.713L477.17 558.437H476.861V558.937ZM473.833 558.937V558.437H473.458L473.353 558.798L473.833 558.937ZM470.532 570.329L470.899 570.668L470.979 570.581L471.012 570.468L470.532 570.329ZM463.529 577.924V578.424H463.748L463.897 578.263L463.529 577.924ZM456.608 577.924L456.123 578.045L456.217 578.424H456.608V577.924ZM454.076 567.797L454.561 567.676L454.561 567.676L454.076 567.797ZM452.81 562.734L453.295 562.613L453.201 562.234H452.81V562.734ZM447.747 562.734V562.234H447.438L447.3 562.511L447.747 562.734ZM442.684 572.861L442.996 573.251L443.082 573.183L443.131 573.084L442.684 572.861ZM436.354 577.924V578.424H436.53L436.667 578.315L436.354 577.924ZM431.291 577.924L430.81 578.061L430.914 578.424H431.291V577.924ZM428.759 569.063L429.24 568.926L429.227 568.881L429.207 568.84L428.759 569.063ZM424.962 561.468L425.409 561.245L425.271 560.968H424.962V561.468ZM421.165 561.468V560.968H420.918L420.768 561.164L421.165 561.468ZM408.506 577.924L408.582 578.418L408.78 578.388L408.903 578.229L408.506 577.924ZM392.051 580.456H391.551V581.038L392.127 580.95L392.051 580.456ZM392.051 576.658L391.738 576.268L391.551 576.418V576.658H392.051ZM398.38 571.595L398.692 571.985L398.964 571.768L398.854 571.437L398.38 571.595ZM397.114 567.797L397.588 567.639L397.474 567.297H397.114V567.797ZM393.316 567.797V567.297H393.109L392.963 567.444L393.316 567.797ZM383.19 577.924L383.413 578.371L383.486 578.335L383.543 578.278L383.19 577.924ZM378.127 580.456V580.956H378.245L378.35 580.903L378.127 580.456ZM375.595 580.456V579.956H375.361L375.211 580.136L375.595 580.456ZM369.266 588.051V588.551H369.5L369.65 588.371L369.266 588.051ZM364.203 588.051H363.703V588.551H364.203V588.051ZM364.203 581.722L364.035 581.25L363.703 581.368V581.722H364.203ZM369.266 579.925L369.433 580.397L369.521 580.365L369.592 580.304L369.266 579.925ZM373.063 576.658L373.389 577.037L373.563 576.888V576.658H373.063ZM373.063 571.595H373.563V571.286L373.287 571.148L373.063 571.595ZM368 569.063L368.224 568.616L368.07 568.539L367.902 568.573L368 569.063ZM361.671 570.329L361.573 569.839L361.3 569.893L361.203 570.154L361.671 570.329ZM357.873 580.456V580.956H358.22L358.342 580.631L357.873 580.456ZM352.81 580.456L352.52 580.863L352.65 580.956H352.81V580.456ZM343.949 574.127L344.24 573.72L344.033 573.572L343.791 573.652L343.949 574.127ZM340.152 575.392L339.994 574.918L339.652 575.032V575.392H340.152ZM340.152 581.722H339.652V581.84L339.705 581.945L340.152 581.722ZM342.684 586.785L342.236 587.008L342.43 587.396L342.842 587.259L342.684 586.785ZM346.481 585.519L346.639 585.993L346.876 585.914L346.955 585.677L346.481 585.519ZM347.747 581.722V581.222H347.386L347.272 581.563L347.747 581.722ZM351.02 581.722H351.52V581.222H351.02V581.722ZM351.02 590.582V591.082H351.52V590.582H351.02ZM346.481 590.582V590.082H346.213L346.065 590.305L346.481 590.582ZM343.949 594.38L343.533 594.102L343.411 594.286L343.464 594.501L343.949 594.38ZM345.215 599.443L344.73 599.564L344.735 599.583L344.741 599.601L345.215 599.443ZM347.747 607.038L348.237 606.94L348.231 606.909L348.221 606.88L347.747 607.038ZM349.013 613.367H349.513V613.318L349.503 613.269L349.013 613.367ZM349.013 634.886L349.236 635.333L349.513 635.195V634.886H349.013ZM343.949 637.418V637.918H344.067L344.173 637.865L343.949 637.418ZM338.886 637.418H338.386V637.918H338.886V637.418ZM338.886 632.354L338.47 632.077L338.386 632.203V632.354H338.886ZM341.418 628.557L341.834 628.834L341.918 628.708V628.557H341.418ZM341.418 624.759H341.918V624.259H341.418V624.759ZM337.62 624.759V624.259H337.326L337.183 624.517L337.62 624.759ZM331.291 636.152L331.215 636.646L331.559 636.699L331.728 636.395L331.291 636.152ZM314.835 633.62L314.911 633.126L314.898 633.124L314.885 633.123L314.835 633.62ZM302.177 632.354L301.824 632.708L301.95 632.834L302.127 632.852L302.177 632.354ZM297.114 627.291L297.467 626.938L297.384 626.854L297.272 626.817L297.114 627.291ZM293.316 626.025L292.852 625.84L292.655 626.332L293.158 626.5L293.316 626.025ZM295.848 619.696L295.548 619.296L295.436 619.38L295.384 619.51L295.848 619.696ZM300.911 615.899L300.862 615.401L300.723 615.415L300.611 615.499L300.911 615.899ZM313.57 614.633L313.619 615.13L313.942 615.098L314.044 614.791L313.57 614.633ZM314.835 610.835L315.31 610.994L315.459 610.546L315.021 610.371L314.835 610.835ZM302.177 605.772L301.681 605.71L301.633 606.093L301.992 606.236L302.177 605.772ZM303.443 595.646L303.089 595.292L302.968 595.413L302.947 595.584L303.443 595.646ZM311.038 588.051L310.956 587.557L310.798 587.584L310.684 587.697L311.038 588.051ZM318.633 586.785L318.857 586.338L318.711 586.265L318.551 586.292L318.633 586.785ZM326.228 590.582L326.581 590.229L326.524 590.171L326.451 590.135L326.228 590.582ZM333.823 598.177L334.239 597.9L334.211 597.859L334.176 597.824L333.823 598.177ZM336.354 601.975L335.938 602.252L336.087 602.475H336.354V601.975ZM340.152 601.975V602.475H340.652V601.975H340.152ZM340.152 591.848H340.652V591.697L340.568 591.571L340.152 591.848ZM327.494 572.861H326.994V573.012L327.078 573.138L327.494 572.861ZM327.494 566.532V566.032H326.994V566.532H327.494ZM336.354 566.532L336.632 566.116L336.506 566.032H336.354V566.532ZM340.152 569.063L339.875 569.479L339.93 569.516L339.994 569.538L340.152 569.063ZM343.949 570.329L343.791 570.803L343.868 570.829H343.949V570.329ZM347.747 570.329V570.829H348.441L348.221 570.171L347.747 570.329ZM346.481 566.532L346.955 566.374L346.949 566.354L346.941 566.335L346.481 566.532ZM342.684 557.671L342.195 557.779L342.206 557.825L342.224 557.868L342.684 557.671ZM340.152 546.278L340.64 546.17L340.63 546.124L340.611 546.082L340.152 546.278ZM336.354 537.418L335.89 537.603L335.895 537.615L336.354 537.418ZM331.291 524.759L330.815 524.911L330.82 524.928L330.827 524.945L331.291 524.759ZM322.43 496.911L321.94 497.009L321.946 497.037L321.954 497.063L322.43 496.911ZM319.899 484.253L319.404 484.324L319.406 484.338L319.408 484.351L319.899 484.253ZM317.367 466.532L316.87 466.587L316.871 466.595L316.872 466.602L317.367 466.532ZM316.101 455.139V454.639H315.543L315.604 455.194L316.101 455.139ZM328.759 455.139L329.255 455.073L329.197 454.639H328.759V455.139ZM331.291 474.127L331.789 474.081L331.788 474.071L331.787 474.061L331.291 474.127ZM333.823 501.975L333.325 502.02L333.331 502.091L333.357 502.157L333.823 501.975ZM345.215 531.089L344.75 531.271L344.759 531.294L344.77 531.316L345.215 531.089ZM351.02 542.481L351.484 542.294L351.476 542.274L351.466 542.254L351.02 542.481ZM354.076 550.076H354.576V549.979L354.54 549.889L354.076 550.076ZM354.076 562.734H353.576V562.941L353.722 563.088L354.076 562.734ZM359.139 567.797L358.786 568.151L359.139 568.505L359.493 568.151L359.139 567.797ZM364.203 562.734V562.234H363.995L363.849 562.381L364.203 562.734ZM369.266 562.734L369.586 562.35L369.447 562.234H369.266V562.734ZM376.861 569.063L376.541 569.447L376.68 569.563H376.861V569.063ZM383.19 569.063V569.563H383.434L383.585 569.37L383.19 569.063ZM392.051 557.671V557.171H391.806L391.656 557.364L392.051 557.671ZM397.114 557.671L397.561 557.447L397.423 557.171H397.114V557.671ZM398.38 560.203L398.861 560.065L398.848 560.02L398.827 559.979L398.38 560.203ZM400.911 569.063L400.431 569.201L400.534 569.563H400.911V569.063ZM407.241 569.063V569.563H407.469L407.618 569.391L407.241 569.063ZM423.696 550.076V549.576H423.468L423.318 549.748L423.696 550.076ZM426.228 550.076L426.451 549.629L426.346 549.576H426.228V550.076ZM428.759 551.342L429.237 551.195L429.174 550.99L428.983 550.895L428.759 551.342ZM433.823 567.797L433.345 567.945L433.453 568.297H433.823V567.797ZM437.62 567.797V568.297H437.875L438.025 568.092L437.62 567.797ZM447.747 553.873V553.373H447.492L447.342 553.579L447.747 553.873ZM455.342 553.873L455.642 553.473L455.508 553.373H455.342V553.873ZM460.405 557.671H460.905V557.421L460.705 557.271L460.405 557.671ZM460.405 565.266H459.905V565.766H460.405V565.266ZM465.468 565.266V565.766H465.902L465.963 565.337L465.468 565.266ZM466.734 556.405L466.334 556.105L466.257 556.208L466.239 556.334L466.734 556.405ZM470.532 551.342V550.842H470.282L470.132 551.042L470.532 551.342ZM478.127 551.342V551.842H478.592L478.625 551.377L478.127 551.342ZM481.924 498.177L481.426 498.132L481.425 498.142L481.924 498.177ZM485.722 456.405L485.228 456.326L485.225 456.343L485.224 456.36L485.722 456.405ZM490.785 424.759L491.279 424.838L491.285 424.799V424.759H490.785ZM490.785 407.038H491.285V406.988L491.275 406.94L490.785 407.038ZM488.253 394.38L487.757 394.438L487.759 394.458L487.763 394.478L488.253 394.38ZM485.722 372.861L485.227 372.79L485.217 372.855L485.225 372.919L485.722 372.861ZM488.253 355.139L487.76 355.057L487.758 355.069L488.253 355.139ZM490.785 339.949L491.278 340.032L491.339 339.667L491.008 339.502L490.785 339.949ZM488.253 338.684L488.477 338.236L488.154 338.075L487.9 338.33L488.253 338.684ZM459.139 367.797L459.201 368.294L459.371 368.272L459.493 368.151L459.139 367.797ZM449.013 369.063L448.951 368.567L448.559 368.616L448.516 369.008L449.013 369.063ZM447.747 380.456L448.194 380.679L448.234 380.6L448.244 380.511L447.747 380.456ZM443.949 388.051L444.269 388.435L444.35 388.368L444.397 388.274L443.949 388.051ZM436.354 394.38L436.034 393.996L435.854 394.146V394.38H436.354ZM436.354 396.911H435.854V397.179L436.077 397.327L436.354 396.911ZM440.152 399.443H440.652V399.175L440.429 399.027L440.152 399.443ZM440.152 410.835L440.611 411.032L440.652 410.938V410.835H440.152ZM436.354 419.696L436.675 420.08L436.767 420.003L436.814 419.893L436.354 419.696ZM428.759 426.025L428.983 426.473L429.035 426.447L429.08 426.409L428.759 426.025ZM421.165 429.823V430.323H421.283L421.388 430.27L421.165 429.823ZM416.101 429.823L415.781 430.207L415.92 430.323H416.101V429.823ZM408.506 423.494L408.106 423.794L408.141 423.84L408.186 423.878L408.506 423.494ZM404.709 418.43H404.209V418.597L404.309 418.73L404.709 418.43ZM404.709 405.772L404.293 405.495L404.209 405.621V405.772H404.709ZM409.772 398.177L409.549 397.73L409.43 397.789L409.356 397.9L409.772 398.177ZM412.304 396.911V396.411H412.186L412.08 396.464L412.304 396.911ZM417.367 396.911V397.411H417.867V396.911H417.367ZM417.367 393.114H417.867V392.614H417.367V393.114ZM413.57 393.114L413.122 393.338L413.261 393.614H413.57V393.114ZM411.038 388.051H410.538V388.169L410.591 388.274L411.038 388.051ZM411.038 371.595L410.564 371.437L410.538 371.514V371.595H411.038ZM412.304 367.797L411.935 367.46L411.863 367.538L411.829 367.639L412.304 367.797ZM426.228 352.608V352.108H426.008L425.859 352.27L426.228 352.608ZM428.759 352.608V353.108H429.259V352.608H428.759ZM428.759 343.747V343.247H428.259V343.747H428.759ZM433.823 343.747V344.247H434.323V343.747H433.823ZM433.823 338.684L433.469 338.33L433.323 338.476V338.684H433.823ZM436.354 336.152V335.652H436.147L436.001 335.798L436.354 336.152ZM438.886 336.152L439.36 335.994L439.246 335.652H438.886V336.152ZM440.152 339.949H440.652V339.868L440.626 339.791L440.152 339.949ZM440.152 346.278H439.652V346.587L439.928 346.726L440.152 346.278ZM442.684 347.544L443.148 347.359L443.077 347.182L442.907 347.097L442.684 347.544ZM445.215 353.873L444.751 354.059L444.8 354.182L444.903 354.264L445.215 353.873ZM451.544 358.937L451.232 359.327L451.369 359.437H451.544V358.937ZM456.608 358.937V359.437H456.774L456.908 359.337L456.608 358.937ZM466.734 351.342L467.034 351.742L467.074 351.712L467.108 351.674L466.734 351.342ZM476.861 339.949L477.234 340.282L477.234 340.282L476.861 339.949ZM486.987 328.557L487.361 328.889L487.405 328.84L487.435 328.781L486.987 328.557ZM489.519 323.494L489.295 323.046L489.146 323.121L489.072 323.27L489.519 323.494ZM492.051 322.228L492.274 322.675L492.551 322.537V322.228H492.051ZM492.051 318.43H492.551V317.93H492.051V318.43ZM489.519 318.43L489.072 318.654L489.21 318.93H489.519V318.43ZM488.253 315.899L487.763 315.801L487.729 315.969L487.806 316.122L488.253 315.899ZM489.519 309.57L489.038 309.432L489.033 309.452L489.029 309.472L489.519 309.57ZM492.051 300.709L492.531 300.846L492.559 300.748L492.547 300.647L492.051 300.709ZM490.785 290.582L491.281 290.52L491.26 290.35L491.138 290.229L490.785 290.582ZM486.987 286.785L486.513 286.943L486.55 287.055L486.634 287.138L486.987 286.785ZM484.456 279.19L484.93 279.032L484.872 278.856L484.713 278.761L484.456 279.19ZM478.127 275.392L478.384 274.964L478.345 274.94L478.302 274.924L478.127 275.392ZM468 271.595L468.176 271.127L468.01 271.065L467.842 271.121L468 271.595ZM460.405 274.127L460.247 273.652L460.027 273.726L459.941 273.941L460.405 274.127ZM457.873 280.456L457.409 280.27L457.287 280.576L457.52 280.809L457.873 280.456ZM460.405 282.987L460.052 283.341L460.198 283.487H460.405V282.987ZM468 282.987L468.3 282.587L468.167 282.487H468V282.987ZM473.063 286.785L472.763 287.185L472.799 287.212L472.84 287.232L473.063 286.785ZM480.658 290.582L481.122 290.397L481.052 290.22L480.882 290.135L480.658 290.582ZM483.19 296.911L483.686 296.973L483.702 296.845L483.654 296.726L483.19 296.911ZM481.924 307.038L482.278 307.392L482.399 307.27L482.42 307.1L481.924 307.038ZM478.127 310.835L477.968 311.31L478.262 311.407L478.48 311.189L478.127 310.835ZM474.329 309.57L473.833 309.632L473.872 309.944L474.171 310.044L474.329 309.57ZM473.063 299.443L473.559 299.381L473.532 299.164L473.354 299.036L473.063 299.443ZM464.203 293.114L464.493 292.707L464.363 292.614H464.203V293.114ZM455.342 293.114V292.614H455.306L455.271 292.619L455.342 293.114ZM446.481 294.38L446.41 293.885L446.151 293.922L446.034 294.156L446.481 294.38ZM443.949 299.443L443.502 299.219L443.341 299.542L443.596 299.797L443.949 299.443ZM450.278 305.772L450.707 305.515L450.676 305.462L450.632 305.419L450.278 305.772ZM454.076 312.101L454.564 312.21L454.607 312.015L454.505 311.844L454.076 312.101ZM451.544 323.494L451.944 323.794L452.009 323.707L452.032 323.602L451.544 323.494ZM447.747 328.557L447.347 328.257L447.247 328.39V328.557H447.747ZM447.747 334.886H447.247V335.195L447.523 335.333L447.747 334.886ZM450.278 336.152L450.055 336.599L450.16 336.652H450.278V336.152ZM454.076 336.152V336.652H454.385L454.523 336.375L454.076 336.152ZM455.342 333.62V333.12H455.033L454.895 333.397L455.342 333.62ZM459.139 333.62H459.639V333.12H459.139V333.62ZM459.139 338.684L459.493 339.037L459.639 338.891V338.684H459.139ZM455.342 342.481V342.981H455.549L455.695 342.835L455.342 342.481ZM446.481 342.481L446.204 342.897L446.33 342.981H446.481V342.481ZM442.684 339.949L442.236 340.173L442.296 340.292L442.406 340.365L442.684 339.949ZM440.152 334.886H439.652V335.004L439.705 335.11L440.152 334.886ZM440.152 329.823L439.705 329.599L439.652 329.705V329.823H440.152ZM442.684 324.759L443.131 324.983L443.152 324.941L443.165 324.896L442.684 324.759ZM443.949 320.29V319.79H443.571L443.468 320.153L443.949 320.29ZM446.481 320.29V320.79H447.081L446.973 320.2L446.481 320.29ZM445.215 313.367L445.707 313.277L445.688 313.176L445.631 313.09L445.215 313.367ZM440.152 305.772L440.568 305.495L440.54 305.454L440.505 305.419L440.152 305.772ZM436.354 301.975L436.708 301.621L436.453 301.366L436.131 301.527L436.354 301.975ZM433.823 303.241L433.599 302.793L433.323 302.931V303.241H433.823ZM433.823 309.57L434.27 309.793L434.323 309.688V309.57H433.823ZM430.025 317.165L430.459 317.413L430.466 317.401L430.473 317.388L430.025 317.165ZM424.962 326.025L425.262 326.425L425.345 326.363L425.396 326.273L424.962 326.025ZM419.899 329.823L419.675 330.27L419.952 330.408L420.199 330.223L419.899 329.823ZM417.367 328.557H416.867V328.866L417.143 329.004L417.367 328.557ZM417.367 324.759L417.014 324.406L416.867 324.552V324.759H417.367ZM419.899 322.228L420.252 322.581L420.277 322.556L420.299 322.528L419.899 322.228ZM423.696 317.165L424.096 317.465L424.152 317.391L424.177 317.302L423.696 317.165ZM426.228 308.304L426.709 308.441L426.711 308.433L426.713 308.425L426.228 308.304ZM428.759 298.177L429.245 298.298L429.259 298.239V298.177H428.759ZM428.759 295.646H429.259V295.146H428.759V295.646ZM426.228 295.646V295.146H425.908L425.774 295.436L426.228 295.646ZM418.633 312.101L419.033 312.401L419.065 312.359L419.087 312.311L418.633 312.101ZM411.038 322.228L411.392 322.581L411.417 322.556L411.438 322.528L411.038 322.228ZM407.241 326.025V326.525H407.448L407.594 326.379L407.241 326.025ZM400.911 326.025H400.411V326.525H400.911V326.025ZM400.911 320.962L400.558 320.608L400.411 320.755V320.962H400.911ZM407.241 314.633L407.594 314.986L407.667 314.914L407.705 314.819L407.241 314.633ZM409.772 308.304L410.236 308.489L410.272 308.4V308.304H409.772ZM409.772 304.506H410.272V304.006H409.772V304.506ZM403.443 304.506V304.006H403.236L403.089 304.153L403.443 304.506ZM402.177 305.772V306.272H402.384L402.531 306.126L402.177 305.772ZM399.646 305.772L399.292 306.126L399.438 306.272H399.646V305.772ZM398.38 304.506L397.905 304.664L397.943 304.776L398.026 304.86L398.38 304.506ZM397.114 300.709L396.76 300.355L396.542 300.574L396.64 300.867L397.114 300.709ZM399.646 298.177L399.487 297.703L399.375 297.74L399.292 297.824L399.646 298.177ZM403.443 296.911L403.601 297.386L403.814 297.315L403.903 297.108L403.443 296.911ZM407.241 288.051V287.551H406.911L406.781 287.854L407.241 288.051ZM409.772 288.051V288.551H410.272V288.051H409.772ZM409.772 284.253H410.272V283.753H409.772V284.253ZM407.241 284.253V283.753H407.191L407.142 283.763L407.241 284.253ZM400.911 285.519L400.464 285.743L400.635 286.084L401.009 286.009L400.911 285.519ZM399.646 282.987L399.198 282.764L399.087 282.987L399.198 283.211L399.646 282.987ZM400.911 280.456L400.79 279.971L400.567 280.026L400.464 280.232L400.911 280.456ZM411.038 277.924L411.159 278.409L411.45 278.336L411.523 278.045L411.038 277.924ZM412.304 272.861V272.361H411.913L411.819 272.739L412.304 272.861ZM414.835 272.861V273.361H415.335V272.861H414.835ZM414.835 250.076H415.335V249.886L415.209 249.744L414.835 250.076ZM404.709 238.684L405.083 238.351L405.073 238.34L405.062 238.33L404.709 238.684ZM392.051 226.025L391.629 226.294L391.658 226.34L391.697 226.379L392.051 226.025ZM383.19 212.101L383.612 211.833L383.6 211.814L383.586 211.796L383.19 212.101ZM370.532 195.646L370.116 195.923L370.125 195.937L370.135 195.95L370.532 195.646ZM360.405 180.456L359.985 180.727L359.989 180.733L360.405 180.456ZM346.481 158.937L346.901 158.665L346.896 158.657L346.891 158.65L346.481 158.937ZM337.62 146.278L337.15 146.449L337.173 146.511L337.211 146.565L337.62 146.278ZM332.557 132.354L333.027 132.184L333.02 132.165L333.012 132.148L332.557 132.354ZM326.228 118.43L326.683 118.223L326.661 118.174L326.628 118.13L326.228 118.43ZM318.633 108.304L319.033 108.004L318.883 107.804H318.633V108.304ZM314.835 108.304V107.804H314.645L314.503 107.93L314.835 108.304ZM303.443 118.43L303.111 118.057L303.039 118.121L302.996 118.207L303.443 118.43ZM289.519 146.278L289.072 146.055L289.044 146.11L289.031 146.17L289.519 146.278ZM286.987 157.671L286.499 157.562L286.499 157.562L286.987 157.671ZM284.456 169.063L284.944 169.172L284.944 169.172L284.456 169.063ZM281.924 180.456L282.388 180.641L282.403 180.604L282.412 180.564L281.924 180.456ZM279.392 186.785L278.928 186.599L278.892 186.689V186.785H279.392ZM279.392 190.582H278.892V192.387L279.821 190.84L279.392 190.582ZM283.19 184.253L282.966 183.806L282.836 183.871L282.761 183.996L283.19 184.253ZM290.785 180.456L291.008 180.903L291.056 180.879L291.097 180.846L290.785 180.456ZM297.114 175.392L296.956 174.918L296.871 174.946L296.802 175.002L297.114 175.392ZM304.709 172.861L304.638 172.366L304.594 172.372L304.551 172.386L304.709 172.861ZM313.57 171.595L313.64 171.1L313.57 171.09L313.499 171.1L313.57 171.595ZM322.43 172.861L322.784 172.507L322.666 172.389L322.501 172.366L322.43 172.861ZM324.962 175.392L325.378 175.115L325.351 175.074L325.316 175.039L324.962 175.392ZM327.494 179.19H327.994V179.038L327.91 178.913L327.494 179.19ZM327.494 182.987V183.487H327.994V182.987H327.494ZM322.43 182.987L322.153 183.403L322.279 183.487H322.43V182.987ZM318.633 180.456L318.91 180.04L318.838 179.992L318.754 179.971L318.633 180.456ZM313.57 179.19L313.691 178.705L313.631 178.69H313.57V179.19ZM307.241 179.19V178.69H307.122L307.017 178.743L307.241 179.19ZM297.114 184.253L296.89 183.806L296.802 183.85L296.738 183.924L297.114 184.253ZM288.253 194.38L288.51 194.808L288.578 194.768L288.629 194.709L288.253 194.38ZM281.924 198.177V198.677H282.063L282.181 198.606L281.924 198.177ZM276.861 198.177L276.779 198.67L276.819 198.677H276.861V198.177ZM269.266 196.911L268.781 197.033L268.86 197.351L269.184 197.405L269.266 196.911ZM443.95 282.99L443.573 282.661L443.531 282.709L443.503 282.766L443.95 282.99ZM438.886 293.116L438.393 293.199L438.646 294.715L439.334 293.34L438.886 293.116ZM452.811 272.863L452.511 272.463L452.469 272.495L452.434 272.534L452.811 272.863ZM468 261.471L468.3 261.871L468.7 261.571L468.4 261.171L468 261.471ZM464.203 256.408L464.603 256.108L464.453 255.908H464.203V256.408ZM456.608 256.408V255.908H456.401L456.254 256.054L456.608 256.408ZM450.279 262.737L449.925 262.383L449.906 262.403L449.888 262.424L450.279 262.737ZM445.216 269.066L445.606 269.378L445.606 269.378L445.216 269.066ZM440.152 275.395L439.762 275.083L439.694 275.168L439.667 275.274L440.152 275.395ZM437.621 285.521L437.136 285.4L437.11 285.501L437.127 285.604L437.621 285.521ZM494.582 274.123V273.623H494.082V274.123H494.582ZM498.379 274.123L498.826 273.9L498.688 273.623H498.379V274.123ZM494.582 275.389H494.082V275.507L494.135 275.613L494.582 275.389ZM495.848 277.921L495.4 278.144L495.437 278.217L495.494 278.274L495.848 277.921ZM498.379 280.452H498.879V280.245L498.733 280.099L498.379 280.452ZM498.379 300.706H497.879V301.206H498.379V300.706ZM502.177 300.706V301.206H502.537L502.651 300.864L502.177 300.706ZM503.443 296.908L503.917 297.066L503.943 296.989V296.908H503.443ZM503.443 288.047H503.943V287.998L503.933 287.949L503.443 288.047ZM502.177 281.718L502.667 281.62L502.654 281.554L502.624 281.495L502.177 281.718ZM278.127 218.44L278.481 218.086L278.334 217.94H278.127V218.44ZM271.798 218.44L271.444 218.793L271.591 218.94H271.798V218.44ZM280.659 220.971L281.012 220.618L281.012 220.618L280.659 220.971ZM283.19 223.503L282.837 223.857L282.983 224.003H283.19V223.503ZM288.254 223.503V224.003H288.461L288.607 223.857L288.254 223.503ZM292.051 219.706L292.405 220.059L292.43 220.034L292.451 220.006L292.051 219.706ZM295.849 214.642L296.249 214.942L296.309 214.861L296.334 214.764L295.849 214.642ZM297.114 209.579V209.079H296.724L296.629 209.458L297.114 209.579ZM303.444 209.579H303.944V209.079H303.444V209.579ZM303.444 215.908L303.86 216.185L303.944 216.059V215.908H303.444ZM300.912 219.706L301.265 220.059L301.3 220.024L301.328 219.983L300.912 219.706ZM297.114 223.503L296.761 223.149L296.703 223.207L296.667 223.279L297.114 223.503ZM295.849 226.035L295.401 225.811L295.349 225.917V226.035H295.849ZM295.849 228.566H295.349V228.943L295.711 229.047L295.849 228.566ZM304.709 231.098L304.967 230.669L304.91 230.635L304.847 230.617L304.709 231.098ZM311.038 234.895L311.351 234.505L311.325 234.484L311.296 234.467L311.038 234.895ZM317.368 239.959L317.815 239.735L317.766 239.637L317.68 239.568L317.368 239.959ZM318.633 242.49H319.133V242.372L319.081 242.267L318.633 242.49ZM318.633 247.554L318.987 247.907L319.133 247.761V247.554H318.633ZM313.57 252.617L313.827 253.046L313.88 253.014L313.924 252.97L313.57 252.617ZM307.241 256.414L306.984 255.986L306.965 255.997L306.947 256.01L307.241 256.414ZM293.317 266.541L293.475 267.015L293.548 266.991L293.611 266.945L293.317 266.541ZM289.519 267.807V268.307H289.601L289.678 268.281L289.519 267.807ZM281.925 267.807L281.571 268.16L281.717 268.307H281.925V267.807ZM279.393 265.275H278.893V265.482L279.039 265.629L279.393 265.275ZM279.393 256.414L279.235 255.94L278.893 256.054V256.414H279.393ZM283.19 255.149L283.348 255.623L283.69 255.509V255.149H283.19ZM283.19 251.351H283.69V251.144L283.544 250.998L283.19 251.351ZM280.659 248.819L280.168 248.918L280.198 249.066L280.305 249.173L280.659 248.819ZM279.393 242.49H278.893V242.54L278.903 242.588L279.393 242.49ZM279.393 236.161L279.039 235.808L278.893 235.954V236.161H279.393ZM281.925 233.63L281.701 233.182L281.628 233.219L281.571 233.276L281.925 233.63ZM284.456 232.364L284.68 232.811L285.127 232.587L284.903 232.14L284.456 232.364ZM283.19 229.832L283.638 229.609L283.545 229.423L283.348 229.358L283.19 229.832ZM279.393 228.566L279.551 228.092L279.474 228.066H279.393V228.566ZM275.595 228.566L275.437 229.041L275.514 229.066H275.595V228.566ZM271.798 227.3L271.351 227.524L271.443 227.709L271.64 227.775L271.798 227.3ZM270.532 224.769H270.032V224.887L270.085 224.992L270.532 224.769ZM270.532 217.174L270.886 216.82L270.032 215.967V217.174H270.532ZM302.177 248.815H301.677V249.315H302.177V248.815ZM307.241 248.815V249.315H307.448L307.594 249.168L307.241 248.815ZM309.772 246.283L310.126 246.637L310.272 246.49V246.283H309.772ZM309.772 242.486H310.272V242.279L310.126 242.132L309.772 242.486ZM307.241 239.954L307.594 239.601L307.448 239.454H307.241V239.954ZM304.709 239.954V239.454H304.591L304.485 239.507L304.709 239.954ZM302.177 241.22L301.954 240.773L301.677 240.911V241.22H302.177ZM294.582 242.486L294.359 242.039L294.21 242.113L294.135 242.262L294.582 242.486ZM293.317 245.017V245.517H293.626L293.764 245.241L293.317 245.017ZM297.114 241.22L297.468 240.866L297.213 240.612L296.89 240.773L297.114 241.22ZM298.38 242.486H298.88V242.279L298.733 242.132L298.38 242.486ZM298.38 246.283L298.733 246.637L298.88 246.49V246.283H298.38ZM297.114 247.549L296.761 247.196L296.703 247.253L296.667 247.325L297.114 247.549ZM294.582 252.612V253.112H294.891L295.03 252.836L294.582 252.612ZM292.051 252.612L291.697 252.966L291.844 253.112H292.051V252.612ZM289.519 250.081L289.873 249.727L289.873 249.727L289.519 250.081ZM288.253 248.815H287.753V249.022L287.9 249.168L288.253 248.815ZM288.253 246.283L287.9 245.93L287.753 246.076V246.283H288.253ZM289.519 245.017V244.517H289.312L289.166 244.664L289.519 245.017ZM473.063 574.127L472.589 573.969L472.536 574.127L472.589 574.285L473.063 574.127ZM474.329 577.924L473.855 578.082L473.969 578.424H474.329V577.924ZM475.595 566.532V566.032H475.234L475.121 566.374L475.595 566.532ZM480.658 566.532H481.158V566.032H480.658V566.532ZM480.658 572.861L481.105 573.085L481.158 572.979V572.861H480.658ZM478.127 577.924V578.424H478.436L478.574 578.148L478.127 577.924ZM421.164 576.658L420.69 576.5L420.471 577.158H421.164V576.658ZM422.43 572.861V572.361H422.07L421.956 572.703L422.43 572.861ZM423.696 576.658L423.854 576.184L423.777 576.158H423.696V576.658ZM427.494 577.924L427.335 578.399L427.994 578.618V577.924H427.494ZM427.494 574.127H427.994V573.766L427.652 573.652L427.494 574.127ZM423.696 572.861L423.854 572.387L423.777 572.361H423.696V572.861ZM443.949 580.456H443.449V580.956H443.949V580.456ZM443.949 576.658V576.158H443.449V576.658H443.949ZM449.013 580.456V580.956H449.373L449.487 580.614L449.013 580.456ZM450.278 576.658L449.831 576.435L449.815 576.467L449.804 576.5L450.278 576.658ZM451.544 574.127L451.991 574.35L452.27 573.793L451.666 573.642L451.544 574.127ZM446.481 572.861L446.602 572.376L446.153 572.264L446.007 572.703L446.481 572.861ZM445.215 576.658V577.158H445.575L445.689 576.817L445.215 576.658ZM359.139 612.102L359.493 611.748L359.293 611.548L359.018 611.616L359.139 612.102ZM354.076 613.367L353.955 612.882L353.707 612.944L353.612 613.182L354.076 613.367ZM360.405 613.367L360.051 613.721L360.252 613.921L360.526 613.852L360.405 613.367ZM365.468 612.102V611.602H365.407L365.347 611.616L365.468 612.102ZM370.532 612.102L370.885 611.748L370.739 611.602H370.532V612.102ZM374.329 615.899L374.683 616.252L375.036 615.899L374.683 615.545L374.329 615.899ZM370.532 619.696L370.832 620.096L370.86 620.075L370.885 620.05L370.532 619.696ZM365.468 623.494V623.994H365.635L365.768 623.894L365.468 623.494ZM354.076 623.494L353.66 623.771L353.808 623.994H354.076V623.494ZM351.544 619.696L351.08 619.511L350.982 619.755L351.128 619.974L351.544 619.696ZM383.19 615.899L382.705 615.778L382.578 616.286L383.092 616.389L383.19 615.899ZM389.519 617.165L389.64 616.68L389.629 616.677L389.617 616.675L389.519 617.165ZM384.456 610.836L384.102 610.482L384.004 610.58L383.971 610.714L384.456 610.836ZM388.253 607.038V606.538H388.046L387.9 606.685L388.253 607.038ZM394.582 607.038L394.68 606.548L394.632 606.538H394.582V607.038ZM400.911 608.304L401.211 607.904L401.121 607.836L401.009 607.814L400.911 608.304ZM405.975 612.102L406.46 611.98L406.417 611.808L406.275 611.702L405.975 612.102ZM407.24 617.165L407.594 617.518L407.794 617.318L407.726 617.044L407.24 617.165ZM404.709 619.696V620.196H404.916L405.062 620.05L404.709 619.696ZM397.114 619.696L396.89 620.144L396.996 620.196H397.114V619.696ZM394.582 618.431L394.806 617.983L394.757 617.959L394.703 617.946L394.582 618.431ZM414.835 619.696L414.419 619.974L414.568 620.196H414.835V619.696ZM412.304 615.899L411.829 615.741L411.752 615.973L411.888 616.176L412.304 615.899ZM433.823 619.696V620.196H433.961L434.08 620.125L433.823 619.696ZM440.152 615.899L440.409 616.328L440.727 616.137L440.637 615.778L440.152 615.899ZM438.886 610.836L439.371 610.714L439.321 610.514L439.143 610.407L438.886 610.836ZM432.557 607.038L432.814 606.609L432.695 606.538H432.557V607.038ZM423.696 607.038V606.538H423.6L423.51 606.574L423.696 607.038ZM417.367 609.57L417.181 609.106L417.133 609.125L417.09 609.154L417.367 609.57ZM413.57 612.102L413.292 611.685L413.149 611.781L413.095 611.943L413.57 612.102ZM466.734 615.899V616.399H467.158L467.227 615.981L466.734 615.899ZM443.949 615.899L443.502 616.123L443.64 616.399H443.949V615.899ZM442.683 613.367L442.267 613.09L442.106 613.331L442.236 613.591L442.683 613.367ZM445.215 609.57L444.862 609.216L444.827 609.251L444.799 609.292L445.215 609.57ZM449.013 605.772L448.854 605.298L448.742 605.335L448.659 605.419L449.013 605.772ZM456.608 603.241V602.741H456.526L456.449 602.766L456.608 603.241ZM464.202 603.241L464.602 602.941L464.452 602.741H464.202V603.241ZM468 608.304L468.493 608.386L468.528 608.175L468.4 608.004L468 608.304ZM278.906 143.632L267.513 191.733L268.487 191.963L279.879 143.862L278.906 143.632ZM289.067 122.015L278.94 143.534L279.845 143.96L289.971 122.441L289.067 122.015ZM297.97 109.283L289.109 121.941L289.929 122.515L298.789 109.856L297.97 109.283ZM310.751 100.299L298.093 109.16L298.666 109.979L311.325 101.118L310.751 100.299ZM310.538 93.1139V100.709H311.538V93.1139H310.538ZM325.976 83.8213L310.786 92.682L311.29 93.5458L326.48 84.6851L325.976 83.8213ZM350.128 76.1814L326.077 83.7764L326.378 84.73L350.429 77.135L350.128 76.1814ZM384.347 68.5752L350.17 76.1701L350.387 77.1463L384.564 69.5514L384.347 68.5752ZM407.132 63.5119L384.347 68.5752L384.564 69.5514L407.349 64.4881L407.132 63.5119ZM436.354 63.5H407.241V64.5H436.354V63.5ZM478.216 71.103L436.444 63.5081L436.265 64.4919L478.037 72.0869L478.216 71.103ZM514.998 83.7805L478.29 71.1222L477.964 72.0676L514.672 84.7259L514.998 83.7805ZM542.873 95.1828L515.025 83.7904L514.646 84.7159L542.494 96.1083L542.873 95.1828ZM567.017 111.689L542.966 95.2329L542.401 96.0582L566.452 112.514L567.017 111.689ZM589.862 133.257L567.077 111.738L566.391 112.465L589.176 133.984L589.862 133.257ZM598.774 144.706L589.914 133.313L589.124 133.927L597.985 145.32L598.774 144.706ZM608.979 173.962L598.852 144.848L597.907 145.177L608.034 174.291L608.979 173.962ZM612.8 203.176L609.002 174.062L608.011 174.191L611.808 203.305L612.8 203.176ZM631.291 202.741H612.304V203.741H631.291V202.741ZM651.636 206.547L631.383 202.749L631.199 203.732L651.452 207.529L651.636 206.547ZM665.85 223.171L651.926 206.715L651.163 207.361L665.087 223.817L665.85 223.171ZM668.498 255.099L665.967 223.454L664.97 223.534L667.502 255.179L668.498 255.099ZM662.153 278.058L668.482 255.273L667.518 255.005L661.189 277.79L662.153 278.058ZM649.437 298.442L662.095 278.189L661.247 277.659L648.589 297.912L649.437 298.442ZM631.488 306.232L649.21 298.637L648.816 297.718L631.094 305.313L631.488 306.232ZM616.101 306.272H631.291V305.272H616.101V306.272ZM608.153 298.531L615.748 306.126L616.455 305.419L608.86 297.824L608.153 298.531ZM604.709 298.677H608.506V297.677H604.709V298.677ZM605.209 308.304V298.177H604.209V308.304H605.209ZM579.783 340.262L605.099 308.616L604.318 307.991L579.002 339.637L579.783 340.262ZM549.38 373.2L579.76 340.289L579.025 339.61L548.645 372.522L549.38 373.2ZM535.383 383.392L549.307 373.265L548.719 372.456L534.795 382.583L535.383 383.392ZM530.025 383.487H535.089V382.487H530.025V383.487ZM530.525 386.785V382.987H529.525V386.785H530.525ZM540.152 386.285H530.025V387.285H540.152V386.285ZM540.652 390.582V386.785H539.652V390.582H540.652ZM530.201 394.848L540.327 391.05L539.976 390.114L529.85 393.912L530.201 394.848ZM525.083 396.131L530.147 394.865L529.904 393.895L524.841 395.161L525.083 396.131ZM525.462 404.506V395.646H524.462V404.506H525.462ZM529.113 407.95L525.316 404.153L524.608 404.86L528.406 408.657L529.113 407.95ZM532.557 407.804H528.759V408.804H532.557V407.804ZM533.376 405.549L532.11 408.08L533.004 408.527L534.27 405.996L533.376 405.549ZM541.418 405.272H533.823V406.272H541.418V405.272ZM541.918 409.57V405.772H540.918V409.57H541.918ZM535.401 415.023L541.73 409.96L541.105 409.179L534.776 414.242L535.401 415.023ZM532.91 417.518L535.442 414.986L534.735 414.279L532.203 416.811L532.91 417.518ZM522.43 417.665H532.557V416.665H522.43V417.665ZM522.93 420.962V417.165H521.93V420.962H522.93ZM531.291 420.462H522.43V421.462H531.291V420.462ZM531.791 427.291V420.962H530.791V427.291H531.791ZM529.113 430.176L531.645 427.645L530.938 426.938L528.406 429.469L529.113 430.176ZM519.899 430.323H528.759V429.323H519.899V430.323ZM510.662 420.025L519.522 430.152L520.275 429.494L511.414 419.367L510.662 420.025ZM505.975 420.196H511.038V419.196H505.975V420.196ZM515.283 437.194L506.422 419.473L505.527 419.92L514.388 437.641L515.283 437.194ZM515.335 443.747V437.418H514.335V443.747H515.335ZM509.772 444.247H514.835V443.247H509.772V444.247ZM503.019 433.885L509.348 444.012L510.196 443.482L503.867 433.355L503.019 433.885ZM502.943 427.291V433.62H503.943V427.291H502.943ZM498.38 427.791H503.443V426.791H498.38V427.791ZM488.752 553.913L498.878 427.331L497.881 427.251L487.755 553.834L488.752 553.913ZM488.753 556.405V553.873H487.753V556.405H488.753ZM494.582 555.905H488.253V556.905H494.582V555.905ZM495.374 552.449L494.108 556.247L495.057 556.563L496.322 552.766L495.374 552.449ZM502.177 552.108H495.848V553.108H502.177V552.108ZM502.677 561.468V552.608H501.677V561.468H502.677ZM491.221 581.967L502.613 561.713L501.741 561.223L490.349 581.476L491.221 581.967ZM490.004 586.906L491.27 581.843L490.3 581.6L489.034 586.664L490.004 586.906ZM490.019 605.772V586.785H489.019V605.772H490.019ZM507.657 632.077L489.935 605.495L489.103 606.05L506.824 632.632L507.657 632.077ZM510.188 635.875L507.657 632.077L506.824 632.632L509.356 636.429L510.188 635.875ZM504.83 637.903L509.893 636.637L509.651 635.667L504.588 636.933L504.83 637.903ZM485.329 613.677L504.316 637.728L505.101 637.108L486.114 613.057L485.329 613.677ZM476.861 613.867H485.722V612.867H476.861V613.867ZM476.361 605.772V613.367H477.361V605.772H476.361ZM480.381 602.824L476.583 605.356L477.138 606.188L480.936 603.657L480.381 602.824ZM480.158 586.785V603.24H481.158V586.785H480.158ZM482.709 577.787L480.177 586.647L481.139 586.922L483.671 578.061L482.709 577.787ZM486.528 568.866L482.73 577.727L483.649 578.121L487.447 569.26L486.528 568.866ZM485.236 564.121L486.502 569.185L487.472 568.942L486.207 563.879L485.236 564.121ZM479.392 564.5H485.722V563.5H479.392V564.5ZM476.414 559.16L478.945 564.224L479.84 563.776L477.308 558.713L476.414 559.16ZM473.833 559.437H476.861V558.437H473.833V559.437ZM471.012 570.468L474.314 559.076L473.353 558.798L470.051 570.19L471.012 570.468ZM463.897 578.263L470.899 570.668L470.164 569.99L463.162 577.585L463.897 578.263ZM456.608 578.424H463.529V577.424H456.608V578.424ZM453.591 567.919L456.123 578.045L457.093 577.803L454.561 567.676L453.591 567.919ZM452.325 562.855L453.591 567.919L454.561 567.676L453.295 562.613L452.325 562.855ZM447.747 563.234H452.81V562.234H447.747V563.234ZM443.131 573.084L448.194 562.958L447.3 562.511L442.236 572.637L443.131 573.084ZM436.667 578.315L442.996 573.251L442.371 572.47L436.042 577.534L436.667 578.315ZM431.291 578.424H436.354V577.424H431.291V578.424ZM428.279 569.201L430.81 578.061L431.772 577.787L429.24 568.926L428.279 569.201ZM424.515 561.692L428.312 569.287L429.207 568.84L425.409 561.245L424.515 561.692ZM421.165 561.968H424.962V560.968H421.165V561.968ZM408.903 578.229L421.561 561.773L420.768 561.164L408.11 577.619L408.903 578.229ZM392.127 580.95L408.582 578.418L408.43 577.43L391.975 579.962L392.127 580.95ZM391.551 576.658V580.456H392.551V576.658H391.551ZM398.067 571.205L391.738 576.268L392.363 577.049L398.692 571.985L398.067 571.205ZM396.64 567.956L397.905 571.753L398.854 571.437L397.588 567.639L396.64 567.956ZM393.316 568.297H397.114V567.297H393.316V568.297ZM383.543 578.278L393.67 568.151L392.963 567.444L382.836 577.571L383.543 578.278ZM378.35 580.903L383.413 578.371L382.966 577.477L377.903 580.008L378.35 580.903ZM375.595 580.956H378.127V579.956H375.595V580.956ZM369.65 588.371L375.979 580.776L375.211 580.136L368.882 587.731L369.65 588.371ZM364.203 588.551H369.266V587.551H364.203V588.551ZM363.703 581.722V588.051H364.703V581.722H363.703ZM369.099 579.454L364.035 581.25L364.37 582.193L369.433 580.397L369.099 579.454ZM372.737 576.279L368.94 579.546L369.592 580.304L373.389 577.037L372.737 576.279ZM372.563 571.595V576.658H373.563V571.595H372.563ZM367.776 569.511L372.84 572.042L373.287 571.148L368.224 568.616L367.776 569.511ZM361.769 570.819L368.098 569.554L367.902 568.573L361.573 569.839L361.769 570.819ZM358.342 580.631L362.139 570.505L361.203 570.154L357.405 580.28L358.342 580.631ZM352.81 580.956H357.873V579.956H352.81V580.956ZM343.659 574.533L352.52 580.863L353.101 580.049L344.24 573.72L343.659 574.533ZM340.31 575.867L344.107 574.601L343.791 573.652L339.994 574.918L340.31 575.867ZM340.652 581.722V575.392H339.652V581.722H340.652ZM343.131 586.561L340.599 581.498L339.705 581.945L342.236 587.008L343.131 586.561ZM346.323 585.045L342.525 586.31L342.842 587.259L346.639 585.993L346.323 585.045ZM347.272 581.563L346.007 585.361L346.955 585.677L348.221 581.88L347.272 581.563ZM351.02 581.222H347.747V582.222H351.02V581.222ZM351.52 590.582V581.722H350.52V590.582H351.52ZM346.481 591.082H351.02V590.082H346.481V591.082ZM344.365 594.657L346.897 590.86L346.065 590.305L343.533 594.102L344.365 594.657ZM345.7 599.322L344.434 594.258L343.464 594.501L344.73 599.564L345.7 599.322ZM348.221 606.88L345.69 599.285L344.741 599.601L347.272 607.196L348.221 606.88ZM349.503 613.269L348.237 606.94L347.257 607.136L348.522 613.465L349.503 613.269ZM349.513 623.494V613.367H348.513V623.494H349.513ZM349.513 634.886V623.494H348.513V634.886H349.513ZM344.173 637.865L349.236 635.333L348.789 634.439L343.726 636.971L344.173 637.865ZM338.886 637.918H343.949V636.918H338.886V637.918ZM338.386 632.354V637.418H339.386V632.354H338.386ZM341.002 628.28L338.47 632.077L339.302 632.632L341.834 628.834L341.002 628.28ZM340.918 624.759V628.557H341.918V624.759H340.918ZM337.62 625.259H341.418V624.259H337.62V625.259ZM331.728 636.395L338.057 625.002L337.183 624.517L330.854 635.909L331.728 636.395ZM314.759 634.114L331.215 636.646L331.367 635.658L314.911 633.126L314.759 634.114ZM302.127 632.852L314.786 634.118L314.885 633.123L302.227 631.857L302.127 632.852ZM296.76 627.645L301.824 632.708L302.531 632.001L297.467 626.938L296.76 627.645ZM293.158 626.5L296.956 627.765L297.272 626.817L293.475 625.551L293.158 626.5ZM295.384 619.51L292.852 625.84L293.781 626.211L296.312 619.882L295.384 619.51ZM300.611 615.499L295.548 619.296L296.148 620.096L301.211 616.299L300.611 615.499ZM313.52 614.135L300.862 615.401L300.961 616.396L313.619 615.13L313.52 614.135ZM314.361 610.677L313.095 614.475L314.044 614.791L315.31 610.994L314.361 610.677ZM301.992 606.236L314.65 611.3L315.021 610.371L302.363 605.308L301.992 606.236ZM302.947 595.584L301.681 605.71L302.673 605.834L303.939 595.708L302.947 595.584ZM310.684 587.697L303.089 595.292L303.797 595.999L311.392 588.404L310.684 587.697ZM318.551 586.292L310.956 587.557L311.12 588.544L318.715 587.278L318.551 586.292ZM326.451 590.135L318.857 586.338L318.409 587.232L326.004 591.029L326.451 590.135ZM334.176 597.824L326.581 590.229L325.874 590.936L333.469 598.531L334.176 597.824ZM336.77 601.697L334.239 597.9L333.407 598.455L335.938 602.252L336.77 601.697ZM340.152 601.475H336.354V602.475H340.152V601.475ZM339.652 591.848V601.975H340.652V591.848H339.652ZM327.078 573.138L339.736 592.125L340.568 591.571L327.91 572.583L327.078 573.138ZM326.994 566.532V572.861H327.994V566.532H326.994ZM336.354 566.032H327.494V567.032H336.354V566.032ZM340.429 568.647L336.632 566.116L336.077 566.948L339.875 569.479L340.429 568.647ZM344.107 569.855L340.31 568.589L339.994 569.538L343.791 570.803L344.107 569.855ZM347.747 569.829H343.949V570.829H347.747V569.829ZM346.007 566.69L347.272 570.487L348.221 570.171L346.955 566.374L346.007 566.69ZM342.224 557.868L346.021 566.729L346.941 566.335L343.143 557.474L342.224 557.868ZM339.664 546.387L342.195 557.779L343.172 557.562L340.64 546.17L339.664 546.387ZM335.895 537.615L339.692 546.475L340.611 546.082L336.814 537.221L335.895 537.615ZM330.827 524.945L335.89 537.603L336.819 537.232L331.755 524.574L330.827 524.945ZM321.954 497.063L330.815 524.911L331.768 524.608L322.907 496.76L321.954 497.063ZM319.408 484.351L321.94 497.009L322.921 496.813L320.389 484.155L319.408 484.351ZM316.872 466.602L319.404 484.324L320.394 484.182L317.862 466.461L316.872 466.602ZM315.604 455.194L316.87 466.587L317.864 466.476L316.598 455.084L315.604 455.194ZM328.759 454.639H316.101V455.639H328.759V454.639ZM331.787 474.061L329.255 455.073L328.264 455.205L330.796 474.193L331.787 474.061ZM334.321 501.929L331.789 474.081L330.793 474.172L333.325 502.02L334.321 501.929ZM345.681 530.906L334.288 501.792L333.357 502.157L344.75 531.271L345.681 530.906ZM351.466 542.254L345.661 530.862L344.77 531.316L350.575 542.708L351.466 542.254ZM354.54 549.889L351.484 542.294L350.556 542.668L353.612 550.263L354.54 549.889ZM354.576 562.734V550.076H353.576V562.734H354.576ZM359.493 567.444L354.43 562.381L353.722 563.088L358.786 568.151L359.493 567.444ZM363.849 562.381L358.786 567.444L359.493 568.151L364.556 563.088L363.849 562.381ZM369.266 562.234H364.203V563.234H369.266V562.234ZM377.181 568.679L369.586 562.35L368.946 563.118L376.541 569.447L377.181 568.679ZM383.19 568.563H376.861V569.563H383.19V568.563ZM391.656 557.364L382.795 568.756L383.585 569.37L392.445 557.978L391.656 557.364ZM397.114 557.171H392.051V558.171H397.114V557.171ZM398.827 559.979L397.561 557.447L396.667 557.894L397.933 560.426L398.827 559.979ZM401.392 568.926L398.861 560.065L397.899 560.34L400.431 569.201L401.392 568.926ZM407.241 568.563H400.911V569.563H407.241V568.563ZM423.318 549.748L406.863 568.736L407.618 569.391L424.074 550.403L423.318 549.748ZM426.228 549.576H423.696V550.576H426.228V549.576ZM428.983 550.895L426.451 549.629L426.004 550.523L428.536 551.789L428.983 550.895ZM434.301 567.65L429.237 551.195L428.282 551.489L433.345 567.945L434.301 567.65ZM437.62 567.297H433.823V568.297H437.62V567.297ZM447.342 553.579L437.216 567.503L438.025 568.092L448.151 554.168L447.342 553.579ZM455.342 553.373H447.747V554.373H455.342V553.373ZM460.705 557.271L455.642 553.473L455.042 554.273L460.105 558.071L460.705 557.271ZM460.905 565.266V557.671H459.905V565.266H460.905ZM465.468 564.766H460.405V565.766H465.468V564.766ZM466.239 556.334L464.973 565.195L465.963 565.337L467.229 556.476L466.239 556.334ZM470.132 551.042L466.334 556.105L467.134 556.705L470.932 551.642L470.132 551.042ZM478.127 550.842H470.532V551.842H478.127V550.842ZM481.425 498.142L477.628 551.306L478.625 551.377L482.423 498.213L481.425 498.142ZM485.224 456.36L481.426 498.132L482.422 498.222L486.219 456.45L485.224 456.36ZM490.291 424.68L485.228 456.326L486.215 456.484L491.279 424.838L490.291 424.68ZM490.285 407.038V424.759H491.285V407.038H490.285ZM487.763 394.478L490.295 407.136L491.275 406.94L488.743 394.282L487.763 394.478ZM485.225 372.919L487.757 394.438L488.75 394.321L486.218 372.802L485.225 372.919ZM487.758 355.069L485.227 372.79L486.216 372.931L488.748 355.21L487.758 355.069ZM490.292 339.867L487.76 355.057L488.746 355.221L491.278 340.032L490.292 339.867ZM488.03 339.131L490.561 340.397L491.008 339.502L488.477 338.236L488.03 339.131ZM459.493 368.151L488.607 339.037L487.9 338.33L458.786 367.444L459.493 368.151ZM449.075 369.559L459.201 368.294L459.077 367.301L448.951 368.567L449.075 369.559ZM448.244 380.511L449.51 369.119L448.516 369.008L447.25 380.4L448.244 380.511ZM444.397 388.274L448.194 380.679L447.3 380.232L443.502 387.827L444.397 388.274ZM436.675 394.764L444.269 388.435L443.629 387.667L436.034 393.996L436.675 394.764ZM436.854 396.911V394.38H435.854V396.911H436.854ZM440.429 399.027L436.632 396.495L436.077 397.327L439.875 399.859L440.429 399.027ZM440.652 410.835V399.443H439.652V410.835H440.652ZM436.814 419.893L440.611 411.032L439.692 410.638L435.895 419.499L436.814 419.893ZM429.08 426.409L436.675 420.08L436.034 419.312L428.439 425.641L429.08 426.409ZM421.388 430.27L428.983 426.473L428.536 425.578L420.941 429.376L421.388 430.27ZM416.101 430.323H421.165V429.323H416.101V430.323ZM408.186 423.878L415.781 430.207L416.421 429.439L408.826 423.11L408.186 423.878ZM404.309 418.73L408.106 423.794L408.906 423.194L405.109 418.13L404.309 418.73ZM404.209 405.772V418.43H405.209V405.772H404.209ZM409.356 397.9L404.293 405.495L405.125 406.05L410.188 398.455L409.356 397.9ZM412.08 396.464L409.549 397.73L409.996 398.624L412.527 397.359L412.08 396.464ZM417.367 396.411H412.304V397.411H417.367V396.411ZM416.867 393.114V396.911H417.867V393.114H416.867ZM413.57 393.614H417.367V392.614H413.57V393.614ZM410.591 388.274L413.122 393.338L414.017 392.89L411.485 387.827L410.591 388.274ZM410.538 371.595V388.051H411.538V371.595H410.538ZM411.829 367.639L410.564 371.437L411.512 371.753L412.778 367.956L411.829 367.639ZM425.859 352.27L411.935 367.46L412.672 368.135L426.596 352.945L425.859 352.27ZM428.759 352.108H426.228V353.108H428.759V352.108ZM428.259 343.747V352.608H429.259V343.747H428.259ZM433.823 343.247H428.759V344.247H433.823V343.247ZM433.323 338.684V343.747H434.323V338.684H433.323ZM436.001 335.798L433.469 338.33L434.176 339.037L436.708 336.505L436.001 335.798ZM438.886 335.652H436.354V336.652H438.886V335.652ZM440.626 339.791L439.36 335.994L438.412 336.31L439.678 340.107L440.626 339.791ZM440.652 346.278V339.949H439.652V346.278H440.652ZM442.907 347.097L440.376 345.831L439.928 346.726L442.46 347.992L442.907 347.097ZM445.679 353.688L443.148 347.359L442.219 347.73L444.751 354.059L445.679 353.688ZM451.857 358.546L445.528 353.483L444.903 354.264L451.232 359.327L451.857 358.546ZM456.608 358.437H451.544V359.437H456.608V358.437ZM466.434 350.942L456.308 358.537L456.908 359.337L467.034 351.742L466.434 350.942ZM476.487 339.617L466.36 351.01L467.108 351.674L477.234 340.282L476.487 339.617ZM486.614 328.225L476.487 339.617L477.234 340.282L487.361 328.889L486.614 328.225ZM489.072 323.27L486.54 328.333L487.435 328.781L489.966 323.717L489.072 323.27ZM491.827 321.781L489.295 323.046L489.743 323.941L492.274 322.675L491.827 321.781ZM491.551 318.43V322.228H492.551V318.43H491.551ZM489.519 318.93H492.051V317.93H489.519V318.93ZM487.806 316.122L489.072 318.654L489.966 318.207L488.7 315.675L487.806 316.122ZM489.029 309.472L487.763 315.801L488.743 315.997L490.009 309.668L489.029 309.472ZM491.57 300.572L489.038 309.432L490 309.707L492.531 300.846L491.57 300.572ZM490.289 290.644L491.554 300.771L492.547 300.647L491.281 290.52L490.289 290.644ZM486.634 287.138L490.431 290.936L491.138 290.229L487.341 286.431L486.634 287.138ZM483.981 279.348L486.513 286.943L487.462 286.627L484.93 279.032L483.981 279.348ZM477.869 275.821L484.198 279.619L484.713 278.761L478.384 274.964L477.869 275.821ZM467.824 272.063L477.951 275.861L478.302 274.924L468.176 271.127L467.824 272.063ZM460.563 274.601L468.158 272.069L467.842 271.121L460.247 273.652L460.563 274.601ZM458.338 280.641L460.869 274.312L459.941 273.941L457.409 280.27L458.338 280.641ZM460.759 282.634L458.227 280.102L457.52 280.809L460.052 283.341L460.759 282.634ZM468 282.487H460.405V283.487H468V282.487ZM473.363 286.385L468.3 282.587L467.7 283.387L472.763 287.185L473.363 286.385ZM480.882 290.135L473.287 286.338L472.84 287.232L480.435 291.029L480.882 290.135ZM483.654 296.726L481.122 290.397L480.194 290.768L482.726 297.097L483.654 296.726ZM482.42 307.1L483.686 296.973L482.694 296.849L481.428 306.976L482.42 307.1ZM478.48 311.189L482.278 307.392L481.57 306.684L477.773 310.482L478.48 311.189ZM474.171 310.044L477.968 311.31L478.285 310.361L474.487 309.095L474.171 310.044ZM472.567 299.505L473.833 309.632L474.825 309.508L473.559 299.381L472.567 299.505ZM463.912 293.521L472.773 299.85L473.354 299.036L464.493 292.707L463.912 293.521ZM455.342 293.614H464.203V292.614H455.342V293.614ZM446.552 294.875L455.412 293.609L455.271 292.619L446.41 293.885L446.552 294.875ZM444.397 299.667L446.928 294.603L446.034 294.156L443.502 299.219L444.397 299.667ZM450.632 305.419L444.303 299.089L443.596 299.797L449.925 306.126L450.632 305.419ZM454.505 311.844L450.707 305.515L449.85 306.029L453.647 312.359L454.505 311.844ZM452.032 323.602L454.564 312.21L453.588 311.993L451.056 323.385L452.032 323.602ZM448.147 328.857L451.944 323.794L451.144 323.194L447.347 328.257L448.147 328.857ZM448.247 334.886V328.557H447.247V334.886H448.247ZM450.502 335.705L447.97 334.439L447.523 335.333L450.055 336.599L450.502 335.705ZM454.076 335.652H450.278V336.652H454.076V335.652ZM454.895 333.397L453.629 335.928L454.523 336.375L455.789 333.844L454.895 333.397ZM459.139 333.12H455.342V334.12H459.139V333.12ZM459.639 338.684V333.62H458.639V338.684H459.639ZM455.695 342.835L459.493 339.037L458.786 338.33L454.988 342.127L455.695 342.835ZM446.481 342.981H455.342V341.981H446.481V342.981ZM442.406 340.365L446.204 342.897L446.758 342.065L442.961 339.533L442.406 340.365ZM439.705 335.11L442.236 340.173L443.131 339.726L440.599 334.662L439.705 335.11ZM439.652 329.823V334.886H440.652V329.823H439.652ZM442.236 324.536L439.705 329.599L440.599 330.046L443.131 324.983L442.236 324.536ZM443.468 320.153L442.202 324.623L443.165 324.896L444.43 320.426L443.468 320.153ZM446.481 319.79H443.949V320.79H446.481V319.79ZM444.723 313.457L445.989 320.38L446.973 320.2L445.707 313.277L444.723 313.457ZM439.736 306.05L444.799 313.644L445.631 313.09L440.568 305.495L439.736 306.05ZM436.001 302.328L439.798 306.126L440.505 305.419L436.708 301.621L436.001 302.328ZM434.046 303.688L436.578 302.422L436.131 301.527L433.599 302.793L434.046 303.688ZM434.323 309.57V303.241H433.323V309.57H434.323ZM430.473 317.388L434.27 309.793L433.376 309.346L429.578 316.941L430.473 317.388ZM425.396 326.273L430.459 317.413L429.591 316.916L424.528 325.777L425.396 326.273ZM420.199 330.223L425.262 326.425L424.662 325.625L419.599 329.423L420.199 330.223ZM417.143 329.004L419.675 330.27L420.122 329.376L417.591 328.11L417.143 329.004ZM416.867 324.759V328.557H417.867V324.759H416.867ZM419.545 321.874L417.014 324.406L417.721 325.113L420.252 322.581L419.545 321.874ZM423.296 316.865L419.499 321.928L420.299 322.528L424.096 317.465L423.296 316.865ZM425.747 308.166L423.215 317.027L424.177 317.302L426.709 308.441L425.747 308.166ZM428.274 298.056L425.743 308.183L426.713 308.425L429.245 298.298L428.274 298.056ZM428.259 295.646V298.177H429.259V295.646H428.259ZM426.228 296.146H428.759V295.146H426.228V296.146ZM419.087 312.311L426.682 295.855L425.774 295.436L418.179 311.892L419.087 312.311ZM411.438 322.528L419.033 312.401L418.233 311.801L410.638 321.928L411.438 322.528ZM407.594 326.379L411.392 322.581L410.684 321.874L406.887 325.672L407.594 326.379ZM400.911 326.525H407.241V325.525H400.911V326.525ZM400.411 320.962V326.025H401.411V320.962H400.411ZM406.887 314.279L400.558 320.608L401.265 321.316L407.594 314.986L406.887 314.279ZM409.308 308.118L406.776 314.447L407.705 314.819L410.236 308.489L409.308 308.118ZM409.272 304.506V308.304H410.272V304.506H409.272ZM403.443 305.006H409.772V304.006H403.443V305.006ZM402.531 306.126L403.797 304.86L403.089 304.153L401.824 305.419L402.531 306.126ZM399.646 306.272H402.177V305.272H399.646V306.272ZM398.026 304.86L399.292 306.126L399.999 305.419L398.733 304.153L398.026 304.86ZM396.64 300.867L397.905 304.664L398.854 304.348L397.588 300.551L396.64 300.867ZM399.292 297.824L396.76 300.355L397.467 301.062L399.999 298.531L399.292 297.824ZM403.285 296.437L399.487 297.703L399.804 298.652L403.601 297.386L403.285 296.437ZM406.781 287.854L402.983 296.714L403.903 297.108L407.7 288.248L406.781 287.854ZM409.772 287.551H407.241V288.551H409.772V287.551ZM409.272 284.253V288.051H410.272V284.253H409.272ZM407.241 284.753H409.772V283.753H407.241V284.753ZM401.009 286.009L407.339 284.743L407.142 283.763L400.813 285.029L401.009 286.009ZM399.198 283.211L400.464 285.743L401.359 285.295L400.093 282.764L399.198 283.211ZM400.464 280.232L399.198 282.764L400.093 283.211L401.359 280.679L400.464 280.232ZM405.853 278.705L400.79 279.971L401.033 280.941L406.096 279.675L405.853 278.705ZM410.917 277.439L405.853 278.705L406.096 279.675L411.159 278.409L410.917 277.439ZM411.819 272.739L410.553 277.803L411.523 278.045L412.789 272.982L411.819 272.739ZM414.835 272.361H412.304V273.361H414.835V272.361ZM414.335 250.076V272.861H415.335V250.076H414.335ZM404.335 239.016L414.462 250.408L415.209 249.744L405.083 238.351L404.335 239.016ZM391.697 226.379L404.355 239.037L405.062 238.33L392.404 225.672L391.697 226.379ZM382.768 212.37L391.629 226.294L392.472 225.757L383.612 211.833L382.768 212.37ZM370.135 195.95L382.794 212.406L383.586 211.796L370.928 195.341L370.135 195.95ZM359.989 180.733L370.116 195.923L370.948 195.368L360.821 180.178L359.989 180.733ZM346.061 159.208L359.985 180.727L360.825 180.184L346.901 158.665L346.061 159.208ZM337.211 146.565L346.071 159.223L346.891 158.65L338.03 145.992L337.211 146.565ZM332.087 132.525L337.15 146.449L338.09 146.108L333.027 132.184L332.087 132.525ZM325.773 118.637L332.102 132.561L333.012 132.148L326.683 118.223L325.773 118.637ZM318.233 108.604L325.828 118.73L326.628 118.13L319.033 108.004L318.233 108.604ZM314.835 108.804H318.633V107.804H314.835V108.804ZM303.775 118.804L315.168 108.678L314.503 107.93L303.111 118.057L303.775 118.804ZM297.561 131.312L303.89 118.654L302.996 118.207L296.667 130.865L297.561 131.312ZM289.966 146.502L297.561 131.312L296.667 130.865L289.072 146.055L289.966 146.502ZM287.475 157.779L290.007 146.387L289.031 146.17L286.499 157.562L287.475 157.779ZM284.944 169.172L287.475 157.779L286.499 157.562L283.968 168.955L284.944 169.172ZM282.412 180.564L284.944 169.172L283.968 168.955L281.436 180.347L282.412 180.564ZM279.857 186.971L282.388 180.641L281.46 180.27L278.928 186.599L279.857 186.971ZM279.892 190.582V186.785H278.892V190.582H279.892ZM282.761 183.996L278.964 190.325L279.821 190.84L283.619 184.51L282.761 183.996ZM290.561 180.008L282.966 183.806L283.413 184.7L291.008 180.903L290.561 180.008ZM296.802 175.002L290.472 180.065L291.097 180.846L297.426 175.783L296.802 175.002ZM304.551 172.386L296.956 174.918L297.272 175.867L304.867 173.335L304.551 172.386ZM313.499 171.1L304.638 172.366L304.78 173.356L313.64 172.09L313.499 171.1ZM322.501 172.366L313.64 171.1L313.499 172.09L322.36 173.356L322.501 172.366ZM325.316 175.039L322.784 172.507L322.077 173.214L324.608 175.746L325.316 175.039ZM327.91 178.913L325.378 175.115L324.546 175.67L327.078 179.467L327.91 178.913ZM327.994 182.987V179.19H326.994V182.987H327.994ZM322.43 183.487H327.494V182.487H322.43V183.487ZM318.356 180.872L322.153 183.403L322.708 182.571L318.91 180.04L318.356 180.872ZM313.448 179.675L318.512 180.941L318.754 179.971L313.691 178.705L313.448 179.675ZM307.241 179.69H313.57V178.69H307.241V179.69ZM297.338 184.7L307.464 179.637L307.017 178.743L296.89 183.806L297.338 184.7ZM288.629 194.709L297.49 184.582L296.738 183.924L287.877 194.05L288.629 194.709ZM282.181 198.606L288.51 194.808L287.996 193.951L281.667 197.748L282.181 198.606ZM276.861 198.677H281.924V197.677H276.861V198.677ZM269.184 197.405L276.779 198.67L276.943 197.684L269.348 196.418L269.184 197.405ZM267.515 191.969L268.781 197.033L269.751 196.79L268.485 191.727L267.515 191.969ZM443.503 282.766L438.439 292.893L439.334 293.34L444.397 283.213L443.503 282.766ZM452.434 272.534L443.573 282.661L444.326 283.319L453.187 273.193L452.434 272.534ZM462.637 264.868L452.511 272.463L453.111 273.263L463.237 265.668L462.637 264.868ZM467.7 261.071L462.637 264.868L463.237 265.668L468.3 261.871L467.7 261.071ZM463.803 256.708L467.6 261.771L468.4 261.171L464.603 256.108L463.803 256.708ZM456.608 256.908H464.203V255.908H456.608V256.908ZM450.632 263.09L456.962 256.761L456.254 256.054L449.925 262.383L450.632 263.09ZM445.606 269.378L450.669 263.049L449.888 262.424L444.825 268.753L445.606 269.378ZM440.543 275.707L445.606 269.378L444.825 268.753L439.762 275.083L440.543 275.707ZM438.106 285.643L440.637 275.516L439.667 275.274L437.136 285.4L438.106 285.643ZM439.38 293.034L438.114 285.439L437.127 285.604L438.393 293.199L439.38 293.034ZM494.582 274.623H498.379V273.623H494.582V274.623ZM495.082 275.389V274.123H494.082V275.389H495.082ZM496.295 277.697L495.029 275.165L494.135 275.613L495.4 278.144L496.295 277.697ZM498.733 280.099L496.201 277.567L495.494 278.274L498.026 280.806L498.733 280.099ZM498.879 286.781V280.452H497.879V286.781H498.879ZM498.879 294.376V286.781H497.879V294.376H498.879ZM498.879 300.706V294.376H497.879V300.706H498.879ZM502.177 300.206H498.379V301.206H502.177V300.206ZM502.968 296.75L501.702 300.547L502.651 300.864L503.917 297.066L502.968 296.75ZM502.943 288.047V296.908H503.943V288.047H502.943ZM501.686 281.816L502.952 288.145L503.933 287.949L502.667 281.62L501.686 281.816ZM499.198 276.879L501.729 281.942L502.624 281.495L500.092 276.431L499.198 276.879ZM497.932 274.347L499.198 276.879L500.092 276.431L498.826 273.9L497.932 274.347ZM278.127 217.94H271.798V218.94H278.127V217.94ZM281.012 220.618L278.481 218.086L277.774 218.793L280.305 221.325L281.012 220.618ZM283.544 223.149L281.012 220.618L280.305 221.325L282.837 223.857L283.544 223.149ZM288.254 223.003H283.19V224.003H288.254V223.003ZM291.698 219.352L287.9 223.149L288.607 223.857L292.405 220.059L291.698 219.352ZM295.449 214.342L291.651 219.406L292.451 220.006L296.249 214.942L295.449 214.342ZM296.629 209.458L295.364 214.521L296.334 214.764L297.599 209.7L296.629 209.458ZM303.444 209.079H297.114V210.079H303.444V209.079ZM303.944 215.908V209.579H302.944V215.908H303.944ZM301.328 219.983L303.86 216.185L303.028 215.631L300.496 219.428L301.328 219.983ZM297.468 223.857L301.265 220.059L300.558 219.352L296.761 223.149L297.468 223.857ZM296.296 226.258L297.562 223.727L296.667 223.279L295.401 225.811L296.296 226.258ZM296.349 228.566V226.035H295.349V228.566H296.349ZM304.847 230.617L295.986 228.086L295.711 229.047L304.572 231.579L304.847 230.617ZM311.296 234.467L304.967 230.669L304.452 231.527L310.781 235.324L311.296 234.467ZM317.68 239.568L311.351 234.505L310.726 235.286L317.055 240.349L317.68 239.568ZM319.081 242.267L317.815 239.735L316.92 240.182L318.186 242.714L319.081 242.267ZM319.133 247.554V242.49H318.133V247.554H319.133ZM313.924 252.97L318.987 247.907L318.28 247.2L313.217 252.263L313.924 252.97ZM307.498 256.843L313.827 253.046L313.313 252.188L306.984 255.986L307.498 256.843ZM293.611 266.945L307.535 256.819L306.947 256.01L293.023 266.137L293.611 266.945ZM289.678 268.281L293.475 267.015L293.159 266.067L289.361 267.332L289.678 268.281ZM281.925 268.307H289.519V267.307H281.925V268.307ZM279.039 265.629L281.571 268.16L282.278 267.453L279.746 264.922L279.039 265.629ZM278.893 256.414V265.275H279.893V256.414H278.893ZM283.032 254.674L279.235 255.94L279.551 256.889L283.348 255.623L283.032 254.674ZM282.69 251.351V255.149H283.69V251.351H282.69ZM280.305 249.173L282.837 251.705L283.544 250.998L281.012 248.466L280.305 249.173ZM278.903 242.588L280.168 248.918L281.149 248.721L279.883 242.392L278.903 242.588ZM278.893 236.161V242.49H279.893V236.161H278.893ZM281.571 233.276L279.039 235.808L279.746 236.515L282.278 233.983L281.571 233.276ZM284.233 231.917L281.701 233.182L282.148 234.077L284.68 232.811L284.233 231.917ZM282.743 230.056L284.009 232.587L284.903 232.14L283.638 229.609L282.743 230.056ZM279.235 229.041L283.032 230.306L283.348 229.358L279.551 228.092L279.235 229.041ZM275.595 229.066H279.393V228.066H275.595V229.066ZM271.64 227.775L275.437 229.041L275.754 228.092L271.956 226.826L271.64 227.775ZM270.085 224.992L271.351 227.524L272.245 227.077L270.979 224.545L270.085 224.992ZM270.032 218.44V224.769H271.032V218.44H270.032ZM270.032 217.174V218.44H271.032V217.174H270.032ZM272.152 218.086L270.886 216.82L270.179 217.527L271.444 218.793L272.152 218.086ZM302.677 248.815V247.549H301.677V248.815H302.677ZM307.241 248.315H302.177V249.315H307.241V248.315ZM309.419 245.93L306.887 248.461L307.594 249.168L310.126 246.637L309.419 245.93ZM309.272 242.486V246.283H310.272V242.486H309.272ZM306.887 240.308L309.419 242.839L310.126 242.132L307.594 239.601L306.887 240.308ZM304.709 240.454H307.241V239.454H304.709V240.454ZM302.401 241.667L304.933 240.401L304.485 239.507L301.954 240.773L302.401 241.667ZM302.677 247.549V241.22H301.677V247.549H302.677ZM294.135 242.262L292.869 244.794L293.764 245.241L295.03 242.709L294.135 242.262ZM296.89 240.773L294.359 242.039L294.806 242.933L297.338 241.667L296.89 240.773ZM298.733 242.132L297.468 240.866L296.761 241.574L298.026 242.839L298.733 242.132ZM298.88 246.283V242.486H297.88V246.283H298.88ZM297.468 247.903L298.733 246.637L298.026 245.93L296.761 247.196L297.468 247.903ZM296.295 250.304L297.561 247.773L296.667 247.325L295.401 249.857L296.295 250.304ZM295.03 252.836L296.295 250.304L295.401 249.857L294.135 252.389L295.03 252.836ZM292.051 253.112H294.582V252.112H292.051V253.112ZM289.166 250.434L291.697 252.966L292.404 252.259L289.873 249.727L289.166 250.434ZM287.9 249.168L289.166 250.434L289.873 249.727L288.607 248.461L287.9 249.168ZM287.753 246.283V248.815H288.753V246.283H287.753ZM289.166 244.664L287.9 245.93L288.607 246.637L289.873 245.371L289.166 244.664ZM293.317 244.517H289.519V245.517H293.317V244.517ZM472.589 574.285L473.855 578.082L474.803 577.766L473.538 573.969L472.589 574.285ZM475.121 566.374L472.589 573.969L473.538 574.285L476.069 566.69L475.121 566.374ZM480.658 566.032H475.595V567.032H480.658V566.032ZM481.158 572.861V566.532H480.158V572.861H481.158ZM478.574 578.148L481.105 573.085L480.211 572.637L477.679 577.701L478.574 578.148ZM474.329 578.424H478.127V577.424H474.329V578.424ZM421.639 576.817L422.905 573.019L421.956 572.703L420.69 576.5L421.639 576.817ZM423.696 576.158H421.164V577.158H423.696V576.158ZM427.652 577.45L423.854 576.184L423.538 577.133L427.335 578.399L427.652 577.45ZM426.994 574.127V577.924H427.994V574.127H426.994ZM423.538 573.335L427.335 574.601L427.652 573.652L423.854 572.387L423.538 573.335ZM422.43 573.361H423.696V572.361H422.43V573.361ZM444.449 580.456V576.658H443.449V580.456H444.449ZM449.013 579.956H443.949V580.956H449.013V579.956ZM449.804 576.5L448.538 580.298L449.487 580.614L450.753 576.817L449.804 576.5ZM451.097 573.903L449.831 576.435L450.726 576.882L451.991 574.35L451.097 573.903ZM446.36 573.346L451.423 574.612L451.666 573.642L446.602 572.376L446.36 573.346ZM445.689 576.817L446.955 573.019L446.007 572.703L444.741 576.5L445.689 576.817ZM443.949 577.158H445.215V576.158H443.949V577.158ZM359.018 611.616L353.955 612.882L354.197 613.852L359.26 612.587L359.018 611.616ZM360.759 613.014L359.493 611.748L358.786 612.455L360.051 613.721L360.759 613.014ZM365.347 611.616L360.284 612.882L360.526 613.852L365.59 612.587L365.347 611.616ZM370.532 611.602H365.468V612.602H370.532V611.602ZM374.683 615.545L370.885 611.748L370.178 612.455L373.975 616.252L374.683 615.545ZM370.885 620.05L374.683 616.252L373.975 615.545L370.178 619.343L370.885 620.05ZM365.768 623.894L370.832 620.096L370.232 619.296L365.168 623.094L365.768 623.894ZM354.076 623.994H365.468V622.994H354.076V623.994ZM351.128 619.974L353.66 623.771L354.492 623.217L351.96 619.419L351.128 619.974ZM353.612 613.182L351.08 619.511L352.008 619.882L354.54 613.553L353.612 613.182ZM383.092 616.389L389.421 617.655L389.617 616.675L383.288 615.409L383.092 616.389ZM383.971 610.714L382.705 615.778L383.675 616.02L384.941 610.957L383.971 610.714ZM387.9 606.685L384.102 610.482L384.809 611.189L388.607 607.392L387.9 606.685ZM394.582 606.538H388.253V607.538H394.582V606.538ZM401.009 607.814L394.68 606.548L394.484 607.529L400.813 608.794L401.009 607.814ZM406.275 611.702L401.211 607.904L400.611 608.704L405.675 612.502L406.275 611.702ZM407.726 617.044L406.46 611.98L405.49 612.223L406.755 617.286L407.726 617.044ZM405.062 620.05L407.594 617.518L406.887 616.811L404.355 619.343L405.062 620.05ZM397.114 620.196H404.709V619.196H397.114V620.196ZM394.359 618.878L396.89 620.144L397.337 619.249L394.806 617.983L394.359 618.878ZM389.398 617.65L394.461 618.916L394.703 617.946L389.64 616.68L389.398 617.65ZM415.251 619.419L412.72 615.622L411.888 616.176L414.419 619.974L415.251 619.419ZM433.823 619.196H414.835V620.196H433.823V619.196ZM439.895 615.47L433.565 619.268L434.08 620.125L440.409 616.328L439.895 615.47ZM438.401 610.957L439.667 616.02L440.637 615.778L439.371 610.714L438.401 610.957ZM432.3 607.467L438.629 611.264L439.143 610.407L432.814 606.609L432.3 607.467ZM423.696 607.538H432.557V606.538H423.696V607.538ZM417.553 610.034L423.882 607.502L423.51 606.574L417.181 609.106L417.553 610.034ZM413.847 612.518L417.644 609.986L417.09 609.154L413.292 611.685L413.847 612.518ZM412.778 616.057L414.044 612.26L413.095 611.943L411.829 615.741L412.778 616.057ZM447.747 616.399H466.734V615.399H447.747V616.399ZM443.949 616.399H447.747V615.399H443.949V616.399ZM442.236 613.591L443.502 616.123L444.397 615.675L443.131 613.144L442.236 613.591ZM444.799 609.292L442.267 613.09L443.099 613.645L445.631 609.847L444.799 609.292ZM448.659 605.419L444.862 609.216L445.569 609.923L449.366 606.126L448.659 605.419ZM456.449 602.766L448.854 605.298L449.171 606.247L456.766 603.715L456.449 602.766ZM464.202 602.741H456.608V603.741H464.202V602.741ZM468.4 608.004L464.602 602.941L463.802 603.541L467.6 608.604L468.4 608.004ZM467.227 615.981L468.493 608.386L467.507 608.222L466.241 615.817L467.227 615.981Z" fill="black"/>
</svg>
